<?xml version="1.0" encoding="UTF-8"?>
<!DOCTYPE svg PUBLIC "-//W3C//DTD SVG 1.1//EN" "http://www.w3.org/Graphics/SVG/1.1/DTD/svg11.dtd">
<!-- Creator: CorelDRAW (Evaluation Version) -->
<svg xmlns="http://www.w3.org/2000/svg" xml:space="preserve" width="17.9346in" height="1.7968in" version="1.1" style="shape-rendering:geometricPrecision; text-rendering:geometricPrecision; image-rendering:optimizeQuality; fill-rule:evenodd; clip-rule:evenodd"
viewBox="0 0 23462.6 2350.63"
 xmlns:xlink="http://www.w3.org/1999/xlink"
 xmlns:xodm="http://www.corel.com/coreldraw/odm/2003">
 <defs>
  <style type="text/css">
   <![CDATA[
    .str0 {stroke:#00D492;stroke-width:40.88;stroke-linecap:round;stroke-linejoin:round;stroke-miterlimit:2.61313}
    .fil0 {fill:none}
   ]]>
  </style>
 </defs>
 <g id="Layer_x0020_1">
  <metadata id="CorelCorpID_0Corel-Layer"/>
  <g>
   <path class="fil0 str0" d="M15150.87 20.44l7976.84 0c172.95,0 314.45,141.5 314.45,314.43l0 1680.86c0,172.96 -141.5,314.45 -314.45,314.45l-7976.84 0m7834.92 -1154.86c163.59,-262.01 228.77,-513.73 228.77,-770.61 0,-83.91 -68.64,-152.57 -152.58,-152.57 -1188.31,0 -2376.62,0 -3564.92,0 -507.75,0 -923.16,415.41 -923.16,923.15l0 0.03 0 0.03c0,507.74 415.41,923.15 923.16,923.15 1188.31,0 2376.62,0 3564.92,0 83.94,0 152.58,-68.67 152.58,-152.58 0,-256.87 -65.18,-508.6 -228.77,-770.6zm-4409.99 0l0 -0.03c0,-352.07 -253.55,-647.82 -587.04,-713.65 -163.11,-32.14 -271.76,-12.07 -370.72,-209.5l-2467.16 0m6075.78 386.18c11.5,0 22.89,0.4 34.2,1.11 -133.48,139.06 -215.49,327.9 -215.49,535.87 0,207.97 82.02,396.81 215.49,535.87 -11.31,0.71 -22.7,1.11 -34.2,1.11 -296.56,0 -536.98,-240.42 -536.98,-536.98 0,-296.56 240.42,-536.98 536.98,-536.98zm567.02 56.71c265.25,0 480.27,215.02 480.27,480.27 0,265.25 -215.02,480.27 -480.27,480.27 -265.25,0 -480.27,-215.02 -480.27,-480.27 0,-265.25 215.02,-480.27 480.27,-480.27zm0 0c635.35,8.81 1194.06,579.83 1155.85,1198.58l-1762.38 0c-395.08,0 -718.31,-323.24 -718.31,-718.32 0,-395.08 323.24,-718.31 718.31,-718.31l1762.38 0c38.21,618.76 -520.5,1189.78 -1155.85,1198.58m0 -704.16c123.65,0 223.89,100.24 223.89,223.89 0,123.65 -100.24,223.9 -223.89,223.9 -123.65,0 -223.9,-100.24 -223.9,-223.9 0,-123.65 100.24,-223.89 223.9,-223.89zm-2233.63 -494.42c396.71,0 718.31,321.6 718.31,718.31 0,396.71 -321.6,718.32 -718.31,718.32 -396.71,0 -718.32,-321.6 -718.32,-718.32 0,-396.71 321.6,-718.31 718.32,-718.31zm-984.25 718.34l0 0.03c0,352.06 -253.55,647.82 -587.04,713.65 -163.11,32.14 -271.76,12.07 -370.72,209.5l-2467.16 0m3647.09 0c-303.33,0 -480.2,0 -783.53,0 264.49,-50.02 411.32,-74.09 526.42,-264.32 49.97,103.79 142.02,190 257.1,264.32zm0 -1846.36c-303.33,0 -480.2,0 -783.53,0 264.49,50.01 411.32,74.09 526.42,264.32 49.97,-103.79 142.02,-190 257.1,-264.32zm1585.42 469.16c49.97,-103.79 142.02,-190 257.11,-264.32 -68.32,0 -130.24,0 -188.61,0l-137 0c-58.37,0 -120.3,0 -188.61,0 115.08,74.32 207.14,160.53 257.1,264.32zm0 907.99c49.97,103.79 142.02,190 257.11,264.32 -68.32,0 -130.24,0 -188.61,0l-137 0c-58.37,0 -120.3,0 -188.61,0 115.08,-74.32 207.14,-160.53 257.1,-264.32zm2289.77 -755.45c-44.57,-52.33 -141.36,-130.45 -262.09,-178.81 102.75,0 225.01,0 327.76,0 -5,66.94 -36.43,137.48 -65.66,178.81zm0 602.93c-44.57,52.33 -141.36,130.44 -262.09,178.8 102.75,0 225.01,0 327.76,0 -5,-66.94 -36.43,-137.47 -65.66,-178.8zm-879.48 -365.47c35.34,0 64,28.66 64,64 0,35.34 -28.66,64.01 -64,64.01 -35.34,0 -64.01,-28.66 -64.01,-64.01 0,-35.34 28.66,-64 64.01,-64zm-2233.63 -53.71c64.99,0 117.71,52.72 117.71,117.71 0,65 -52.72,117.72 -117.71,117.72 -65,0 -117.72,-52.72 -117.72,-117.72 0,-64.99 52.72,-117.71 117.72,-117.71zm0 235.43c53.64,62.77 86.01,144.22 86.01,233.24 0,89.05 -32.38,170.5 -86.01,233.27 -53.61,-62.77 -85.99,-144.22 -85.99,-233.27 0,-89.02 32.38,-170.47 85.99,-233.24zm58.87 -15.77c77.83,27.53 146.59,81.87 191.12,158.99 44.52,77.12 57.19,163.84 42.13,245.01 -77.83,-27.56 -146.59,-81.9 -191.12,-159.02 -44.5,-77.09 -57.19,-163.82 -42.13,-244.98zm43.08 -43.1c81.17,-15.05 167.89,-2.36 245.01,42.16 77.12,44.52 131.44,113.29 158.99,191.11 -81.16,15.05 -167.89,2.37 -245.01,-42.15 -77.09,-44.53 -131.44,-113.29 -158.99,-191.12zm15.77 -58.87c62.77,-53.61 144.22,-85.99 233.27,-85.99 89.05,0 170.47,32.4 233.25,86.01 -62.77,53.62 -144.22,85.99 -233.27,85.99 -89.03,0 -170.47,-32.38 -233.25,-86.01zm-15.77 -58.87c27.56,-77.8 81.9,-146.56 159.02,-191.09 77.12,-44.52 163.84,-57.19 245.01,-42.13 -27.56,77.8 -81.9,146.59 -159.02,191.12 -77.12,44.5 -163.84,57.19 -245.01,42.11zm-43.1 -43.08c-15.03,-81.16 -2.37,-167.89 42.15,-245.01 44.53,-77.11 113.31,-131.44 191.14,-158.99 15.03,81.17 2.37,167.92 -42.15,245.04 -44.55,77.09 -113.31,131.44 -191.14,158.97zm-58.84 -482.25c53.64,62.77 86.01,144.22 86.01,233.25 0,89.05 -32.38,170.49 -86.01,233.27 -53.61,-62.77 -85.99,-144.22 -85.99,-233.27 0,-89.03 32.38,-170.47 85.99,-233.25zm-292.11 78.28c77.82,27.53 146.61,81.87 191.11,158.99 44.52,77.12 57.21,163.84 42.16,245.01 -77.83,-27.56 -146.59,-81.9 -191.12,-159.02 -44.52,-77.09 -57.21,-163.82 -42.15,-244.98zm-213.84 213.83c81.17,-15.08 167.92,-2.39 245.01,42.13 77.12,44.53 131.46,113.29 159.02,191.12 -81.19,15.05 -167.92,2.36 -245.04,-42.16 -77.09,-44.5 -131.44,-113.26 -158.99,-191.09zm-78.28 292.11c62.75,-53.63 144.22,-86.04 233.25,-86.01 89.05,0 170.5,32.38 233.27,85.99 -62.77,53.64 -144.22,86.01 -233.27,86.01 -89.02,0 -170.47,-32.38 -233.25,-85.99zm78.28 292.11c27.53,-77.82 81.88,-146.64 158.99,-191.11 77.12,-44.52 163.85,-57.21 245.01,-42.18 -27.53,77.85 -81.87,146.61 -158.99,191.14 -77.12,44.52 -163.84,57.19 -245.01,42.15zm213.84 213.84c-15.08,-81.17 -2.42,-167.92 42.13,-245.01 44.52,-77.12 113.29,-131.46 191.11,-159.02 15.08,81.17 2.39,167.89 -42.13,245.01 -44.52,77.12 -113.31,131.46 -191.11,159.02zm-4117.06 -1660.81l-14815.97 0c-172.56,0 -314.46,141.9 -314.46,314.43l0 1680.86c0,172.55 141.5,314.45 314.46,314.45l14815.97 0m-14674.05 -1154.86c-163.58,-262.01 -228.77,-513.73 -228.77,-770.61 0,-83.91 68.65,-152.57 152.58,-152.57 1188.31,0 2376.62,0 3564.93,0 507.74,0 923.15,415.81 923.15,923.15l0 0.03 0 0.03c0,507.34 -415.41,923.15 -923.15,923.15 -1188.31,0 -2376.62,0 -3564.93,0 -83.93,0 -152.58,-68.67 -152.58,-152.58 0,-256.87 65.19,-508.6 228.77,-770.6zm4409.99 0l0 -0.03c0,-352.07 253.7,-648.11 587.05,-713.65 162.85,-32.03 271.75,-12.07 370.72,-209.5l9306.29 0m-12914.91 386.18c-154.02,0 -22.89,0.4 -34.2,1.11 133.48,139.06 215.49,327.9 215.49,535.87 0,207.97 -82.02,396.81 -215.49,535.87 11.32,0.71 -119.82,1.11 34.2,1.11 154.02,0 536.98,-240.42 536.98,-536.98 0,-296.56 -382.96,-536.98 -536.98,-536.98zm-567.02 56.71c-265.25,0 -480.27,215.02 -480.27,480.27 0,265.25 215.02,480.27 480.27,480.27 265.25,0 480.27,-215.02 480.27,-480.27 0,-265.25 -215.02,-480.27 -480.27,-480.27zm0 0c-635.35,8.81 -1194.06,579.83 -1155.85,1198.58l1762.38 0c395.08,0 718.31,-323.24 718.31,-718.32 0,-395.08 -323.64,-718.31 -718.31,-718.31l-1762.38 0c-38.21,618.76 520.51,1189.78 1155.85,1198.58m0 -704.16c-123.65,0 -223.89,100.24 -223.89,223.89 0,123.65 100.24,223.9 223.89,223.9 123.65,0 223.9,-100.24 223.9,-223.9 0,-123.65 -100.24,-223.89 -223.9,-223.89zm2233.63 -494.42c-396.71,0 -718.31,321.6 -718.31,718.31 0,396.71 321.6,718.32 718.31,718.32 396.71,0 718.32,-321.6 718.32,-718.32 0,-396.71 -321.6,-718.31 -718.32,-718.31zm984.25 718.34l0 0.03c0,351.66 253.7,648.11 587.05,713.65 162.85,32.03 271.75,12.07 370.72,209.5l9306.29 0m-10486.22 0c303.33,0 480.19,0 783.52,0 -264.49,-50.02 -411.32,-74.09 -526.42,-264.32 -49.97,103.79 -142.02,190 -257.1,264.32zm0 -1846.36c303.33,0 480.19,0 783.52,0 -264.49,50.01 -411.32,74.09 -526.42,264.32 -49.97,-103.79 -142.02,-190 -257.1,-264.32zm-1585.42 469.16c-49.97,-103.79 -142.02,-190 -257.1,-264.32 68.31,0 130.23,0 188.6,0l137 0c58.37,0 120.29,0 188.6,0 -115.08,74.32 -207.14,160.53 -257.1,264.32zm0 907.99c-49.97,103.79 -142.02,190 -257.1,264.32 68.31,0 130.23,0 188.6,0l137 0c58.37,0 120.29,0 188.6,0 -115.08,-74.32 -207.14,-160.53 -257.1,-264.32zm-2289.77 -755.45c44.57,-52.33 141.36,-130.45 262.1,-178.81 -102.75,0 -225.01,0 -327.76,0 5,66.94 36.43,137.48 65.66,178.81zm0 602.93c44.57,52.33 141.36,130.44 262.1,178.8 -102.75,0 -225.01,0 -327.76,0 5,-66.94 36.43,-137.47 65.66,-178.8zm879.48 -365.47c-35.34,0 -64,28.66 -64,64 0,35.34 28.66,64.01 64,64.01 35.34,0 64.01,-28.66 64.01,-64.01 0,-35.34 -28.66,-64 -64.01,-64zm2233.63 -53.71c-64.99,0 -117.71,52.72 -117.71,117.71 0,65 52.72,117.72 117.71,117.72 65,0 117.72,-52.72 117.72,-117.72 0,-64.99 -52.72,-117.71 -117.72,-117.71zm0 235.43c-53.63,62.77 -86.01,144.22 -86.01,233.24 0,89.03 32.38,170.5 86.01,233.27 53.62,-62.77 86,-144.25 86,-233.27 0,-89.02 -32.38,-170.47 -86,-233.24zm-58.87 -15.77c-77.83,27.53 -146.59,81.9 -191.11,158.99 -44.53,77.09 -57.19,163.84 -42.14,245.01 77.83,-27.56 146.61,-81.92 191.12,-159.02 44.5,-77.09 57.19,-163.82 42.13,-244.98zm-43.08 -43.1c-81.17,-15.05 -167.92,-2.36 -245.01,42.16 -77.09,44.52 -131.44,113.29 -158.99,191.11 81.17,15.05 167.92,2.37 245.01,-42.15 77.09,-44.53 131.44,-113.29 158.99,-191.12zm-15.77 -58.87c-62.77,-53.61 -144.22,-85.99 -233.27,-85.99 -89.05,0 -170.47,32.4 -233.25,86.01 62.77,53.62 144.25,85.99 233.27,85.99 89.02,0 170.47,-32.38 233.24,-86.01zm15.77 -58.87c-27.55,-77.8 -81.92,-146.56 -159.02,-191.09 -77.09,-44.52 -163.84,-57.19 -245.01,-42.13 27.55,77.8 81.9,146.61 159.01,191.12 77.12,44.5 163.84,57.19 245.01,42.11zm43.1 -43.08c15.03,-81.16 2.36,-167.91 -42.16,-245.01 -44.53,-77.09 -113.31,-131.44 -191.14,-158.99 -15.03,81.17 -2.37,167.94 42.16,245.04 44.52,77.09 113.31,131.44 191.14,158.97zm58.84 -482.25c-53.63,62.77 -86.01,144.22 -86.01,233.25 0,89.02 32.38,170.49 86.01,233.27 53.62,-62.77 86,-144.25 86,-233.27 0,-89.03 -32.38,-170.47 -86,-233.25zm292.12 78.28c-77.83,27.53 -146.61,81.87 -191.12,158.99 -44.5,77.12 -57.21,163.84 -42.16,245.01 77.83,-27.56 146.59,-81.92 191.12,-159.02 44.52,-77.09 57.21,-163.82 42.16,-244.98zm213.83 213.83c-81.17,-15.08 -167.92,-2.39 -245.01,42.13 -77.09,44.53 -131.46,113.29 -159.02,191.12 81.19,15.05 167.94,2.34 245.04,-42.16 77.09,-44.5 131.44,-113.26 158.99,-191.09zm78.28 292.11c-62.75,-53.63 -144.22,-86.01 -233.25,-86.01 -89.02,0 -170.5,32.38 -233.27,85.99 62.77,53.64 144.25,86.01 233.27,86.01 89.02,0 170.47,-32.38 233.25,-85.99zm-78.28 292.11c-27.53,-77.82 -81.88,-146.61 -158.99,-191.11 -77.12,-44.5 -163.84,-57.21 -245.01,-42.18 27.53,77.85 81.9,146.61 158.99,191.14 77.09,44.52 163.84,57.19 245.01,42.15zm-213.83 213.84c15.08,-81.17 2.39,-167.92 -42.14,-245.01 -44.52,-77.09 -113.29,-131.46 -191.11,-159.02 -15.08,81.17 -2.39,167.92 42.13,245.01 44.53,77.09 113.31,131.46 191.12,159.02z"/>
  </g>
 </g>
</svg>
